<svg width="99" height="94" viewBox="0 0 99 94" fill="none" xmlns="http://www.w3.org/2000/svg">
<path fill-rule="evenodd" clip-rule="evenodd" d="M27.0376 57.8991L37.8384 41.3121L46.9034 55.006L50.7609 49.2198L52.111 51.3414L48.8321 56.1632H57.3185L47.0963 40.3477L43.2389 46.1339L41.8887 44.0123L43.2389 42.0836C40.9887 41.0549 36.9898 37.4161 38.9957 31.0899C39.7029 29.2897 42.3131 25.6895 47.0963 25.6895C51.8795 25.6895 54.3611 29.2897 55.0041 31.0899C57.0099 37.879 53.011 41.2478 50.7609 42.0836L53.0753 45.7481L56.1613 41.3121L66.9621 57.8991H27.0376ZM47.0963 35.333L49.7965 40.3477C50.4394 40.2191 51.9952 39.4219 53.0753 37.2618C53.8468 35.333 53.6539 33.34 53.4611 32.6328C52.7902 28.7754 49.1536 27.8753 47.482 27.811C45.8105 27.6182 42.1202 28.2739 40.7315 32.44C39.3428 36.606 42.4674 39.4477 44.2032 40.3477L47.0963 35.333ZM54.2326 47.6769L56.1613 44.9767L63.4904 56.1632H59.8259L54.2326 47.6769ZM30.5093 56.1632H45.1676L40.9244 49.4127L38.0313 54.2345H35.524L39.7672 47.6769L37.8384 44.9767L30.5093 56.1632Z" fill="#E48C3F" stroke="white" stroke-width="0.192872" stroke-miterlimit="9.59865"/>
<path d="M23.3732 66.3848L24.7233 64.8418C19.9015 58.8628 13.1509 43.2787 24.7233 28.7747L23.3732 27.2317C21.5245 29.6306 20.0933 32.0188 19.0138 34.368L14.8868 32.6321L13.9224 34.7537L18.0985 36.5697C17.0972 39.2576 16.5394 41.8814 16.323 44.3973L1 46.9047L16.2961 49.0263C16.5099 51.9231 17.1402 54.6163 17.9987 57.0251L13.9224 58.6699L14.8868 60.9843L18.8871 59.2485C20.2295 62.271 21.8835 64.7178 23.3732 66.3848Z" fill="#40D885" stroke="white" stroke-width="0.192872" stroke-miterlimit="9.59865"/>
<path d="M75.6268 27.2305L74.2767 28.7734C79.0985 34.7525 85.8491 50.3365 74.2767 64.8405L75.6268 66.3835C77.4755 63.9846 78.9067 61.5965 79.9862 59.2472L84.1132 60.9831L85.0776 58.8615L80.9015 57.0455C81.9028 54.3577 82.4606 51.7339 82.677 49.2179L98 46.7106L82.7039 44.589C82.4901 41.6921 81.8598 38.999 81.0013 36.5902L85.0776 34.9454L84.1132 32.6309L80.1129 34.3667C78.7705 31.3442 77.1165 28.8975 75.6268 27.2305Z" fill="#40D885" stroke="white" stroke-width="0.192872" stroke-miterlimit="9.59865"/>
<path d="M27.6165 23.3732L29.1594 24.7233C35.1385 19.9015 50.7225 13.1509 65.2265 24.7233L66.7695 23.3732C64.3706 21.5245 61.9824 20.0933 59.6332 19.0138L61.3691 14.8868L59.2475 13.9224L57.4315 18.0985C54.7437 17.0972 52.1199 16.5394 49.6039 16.323L47.0965 1L44.9749 16.2961C42.0781 16.5099 39.385 17.1402 36.9762 17.9987L35.3313 13.9224L33.0169 14.8868L34.7527 18.8871C31.7302 20.2295 29.2835 21.8835 27.6165 23.3732Z" fill="#40D885" stroke="white" stroke-width="0.192872" stroke-miterlimit="9.59865"/>
<path d="M66.7693 70.6268L65.2263 69.2767C59.2473 74.0985 43.6632 80.8491 29.1592 69.2767L27.6162 70.6268C30.0151 72.4755 32.4033 73.9067 34.7525 74.9862L33.0167 79.1132L35.1383 80.0776L36.9543 75.9015C39.6421 76.9028 42.2659 77.4606 44.7819 77.677L47.2892 93L49.4108 77.7039C52.3076 77.4901 55.0008 76.8598 57.4096 76.0013L59.0544 80.0776L61.3689 79.1132L59.633 75.1129C62.6555 73.7705 65.1023 72.1165 66.7693 70.6268Z" fill="#40D885" stroke="white" stroke-width="0.192872" stroke-miterlimit="9.59865"/>
<path fill-rule="evenodd" clip-rule="evenodd" d="M23.1803 72.5575L21.4445 70.8216L27.4235 64.8426C22.0231 58.6064 14.4625 42.7009 27.4235 28.9684L21.2516 22.9894L22.9875 21.4464L28.9665 27.4254C34.5598 22.2822 49.5653 15.043 64.8407 27.2325L70.8197 21.4464L72.5556 22.9894L66.5766 28.9684C79.5376 43.3181 71.977 58.8636 66.5766 64.8426L72.5556 70.8216L71.0126 72.3646L65.0336 66.3856C50.3753 79.3466 35.0098 71.9146 29.1594 66.5784L23.1803 72.5575ZM37.26 69.4715C40.8603 71.0145 49.7581 73.1747 56.5472 69.4715H37.26ZM60.2118 67.5428L33.5954 67.3499L31.281 65.6141L62.7191 65.8069L60.2118 67.5428ZM65.0336 63.6854H29.1594L27.4235 61.7566H66.5766L65.0336 63.6854ZM67.7338 59.8279H26.2663C23.4375 55.649 19.4772 44.5524 26.2663 33.5973C33.0554 22.6422 45.8106 21.7035 51.3396 22.6036C55.1971 23.4394 63.8763 26.8082 67.7338 33.5973C74.5229 44.5524 70.5626 55.649 67.7338 59.8279Z" fill="#E48C3F"/>
<path d="M29.1594 66.5784L23.1803 72.5575L21.4445 70.8216L27.4235 64.8426M29.1594 66.5784L27.4235 64.8426M29.1594 66.5784C35.0098 71.9146 50.3753 79.3466 65.0336 66.3856M27.4235 64.8426C22.0231 58.6064 14.4625 42.7009 27.4235 28.9684M27.4235 28.9684L21.2516 22.9894L22.9875 21.4464L28.9665 27.4254M27.4235 28.9684L28.9665 27.4254M28.9665 27.4254C34.5598 22.2822 49.5653 15.043 64.8407 27.2325M64.8407 27.2325L70.8197 21.4464L72.5556 22.9894L66.5766 28.9684M64.8407 27.2325L66.5766 28.9684M66.5766 28.9684C79.5376 43.3181 71.977 58.8636 66.5766 64.8426M66.5766 64.8426L72.5556 70.8216L71.0126 72.3646L65.0336 66.3856M66.5766 64.8426L65.0336 66.3856M26.2663 59.8279H67.7338C70.5626 55.649 74.5229 44.5524 67.7338 33.5973C63.8763 26.8082 55.1971 23.4394 51.3396 22.6036C45.8106 21.7035 33.0554 22.6422 26.2663 33.5973C19.4772 44.5524 23.4375 55.649 26.2663 59.8279ZM37.26 69.4715C40.8603 71.0145 49.7581 73.1747 56.5472 69.4715H37.26ZM33.5954 67.3499L60.2118 67.5428L62.7191 65.8069L31.281 65.6141L33.5954 67.3499ZM65.0336 63.6854H29.1594L27.4235 61.7566H66.5766L65.0336 63.6854Z" stroke="white" stroke-width="0.192872" stroke-miterlimit="9.59865"/>
</svg>
